<?xml version="1.0" standalone="no"?>
<!DOCTYPE svg PUBLIC "-//W3C//DTD SVG 20010904//EN"
 "http://www.w3.org/TR/2001/REC-SVG-20010904/DTD/svg10.dtd">
<svg version="1.0" xmlns="http://www.w3.org/2000/svg"
 width="612.000000pt" height="586.000000pt" viewBox="0 0 612.000000 586.000000"
 preserveAspectRatio="xMidYMid meet">

<g transform="translate(0.000000,586.000000) scale(0.100000,-0.100000)"
fill="#000000" stroke="none">
<path d="M2495 5840 c-96 -20 -252 -101 -238 -123 3 -5 1 -7 -4 -4 -13 8 -36
-17 -25 -28 4 -5 2 -5 -4 -2 -14 8 -57 -36 -47 -48 5 -4 3 -5 -4 -1 -15 8 -57
-56 -90 -136 -14 -34 -38 -144 -58 -265 -47 -283 -60 -333 -112 -441 -39 -84
-47 -93 -66 -88 -61 17 -223 36 -312 36 -204 0 -373 -44 -600 -155 -313 -154
-614 -450 -763 -750 -124 -250 -169 -475 -159 -788 6 -200 33 -345 96 -529 41
-117 125 -273 142 -263 5 4 6 0 3 -8 -13 -34 224 -291 366 -395 226 -168 521
-304 729 -338 109 -18 333 -17 431 0 86 16 198 56 241 87 17 12 34 18 38 13 4
-5 16 -40 26 -79 41 -161 194 -503 217 -489 7 4 8 2 4 -5 -10 -15 102 -183
116 -175 7 4 8 2 4 -4 -19 -30 229 -284 407 -418 443 -333 930 -470 1452 -409
125 15 286 48 390 81 120 39 255 96 249 106 -5 7 -2 8 5 4 27 -17 319 161 441
269 154 136 352 367 333 386 -7 7 -18 0 -34 -23 -13 -18 -31 -42 -40 -53 -152
-176 -196 -221 -329 -333 -94 -79 -281 -191 -410 -247 -451 -195 -958 -229
-1400 -94 -271 83 -579 260 -789 455 -35 32 -68 58 -73 56 -5 -1 -7 1 -5 6 3
4 -13 25 -35 47 -64 63 -184 217 -239 305 -104 169 -188 364 -253 587 l-15 52
38 46 c54 65 81 126 94 204 l10 68 66 6 c296 27 510 200 577 466 22 87 15 253
-13 333 l-20 57 65 38 c218 128 286 411 187 788 -8 31 -31 93 -50 138 -20 45
-39 87 -41 93 -6 14 149 100 256 142 294 116 496 155 795 156 320 1 541 -48
834 -185 96 -45 262 -142 304 -177 13 -11 20 -13 28 -5 22 22 -242 177 -436
257 -111 45 -287 96 -402 116 -414 72 -938 -17 -1313 -224 -45 -26 -84 -45
-85 -44 -1 2 -12 21 -25 43 -32 54 -96 142 -139 189 -34 36 -35 39 -17 50 114
69 203 136 262 197 86 91 162 198 122 173 -7 -4 -8 -3 -4 5 4 6 11 9 15 6 13
-7 79 142 100 227 57 221 47 435 -29 617 -43 105 -130 228 -151 215 -5 -3 -7
1 -4 8 6 18 -104 99 -185 137 -36 17 -92 37 -125 46 -71 19 -244 28 -300 15z
m303 -61 c82 -22 174 -65 219 -103 17 -14 33 -23 37 -21 3 3 5 3 3 0 -2 -3 19
-28 45 -57 62 -66 132 -206 159 -318 19 -74 21 -103 16 -235 -6 -152 -20 -226
-65 -343 -57 -148 -168 -288 -307 -389 -38 -28 -91 -61 -116 -73 l-47 -23 -61
51 c-196 163 -615 396 -677 376 -14 -4 -16 -3 -5 4 10 7 0 13 -38 23 -28 7
-51 15 -51 18 0 3 11 25 24 48 56 98 85 197 121 423 50 317 74 384 175 486 32
32 56 63 53 68 -4 5 -1 6 5 2 6 -4 28 4 49 18 113 75 286 92 461 45z m-995
-1109 c132 -29 259 -75 390 -140 133 -67 375 -220 457 -289 59 -50 155 -149
178 -184 8 -12 20 -26 26 -32 7 -5 33 -46 58 -90 215 -371 237 -778 52 -975
-37 -39 -149 -111 -157 -99 -1 2 -11 20 -22 40 -92 167 -384 411 -706 589
-318 175 -531 252 -735 266 -85 6 -91 6 -96 -13 -5 -19 1 -21 86 -27 177 -12
321 -58 561 -178 238 -119 415 -229 571 -354 89 -72 207 -190 240 -239 9 -14
21 -22 27 -18 5 3 7 1 3 -5 -3 -6 7 -32 24 -59 77 -124 100 -293 61 -438 -29
-106 -71 -176 -150 -255 -99 -98 -214 -146 -392 -165 l-67 -7 -7 33 c-19 94
-111 226 -237 344 -96 89 -313 239 -330 229 -7 -5 -8 -3 -3 6 6 10 4 12 -9 7
-10 -4 -15 -3 -11 3 13 20 -324 163 -484 205 -33 8 -67 18 -76 21 -11 5 -15 0
-15 -18 0 -22 7 -26 58 -37 146 -33 408 -144 569 -242 172 -105 354 -267 430
-383 74 -112 94 -227 58 -336 -33 -100 -91 -162 -200 -216 -94 -46 -184 -64
-340 -71 -127 -5 -321 14 -378 37 -12 5 -59 22 -104 39 -197 74 -395 186 -535
304 -34 29 -62 46 -69 41 -7 -4 -9 -3 -6 3 3 5 -24 41 -61 80 -100 104 -127
137 -187 228 -94 140 -149 290 -197 528 -30 149 -32 462 -4 602 42 214 112
399 200 528 15 21 23 44 20 50 -4 7 -4 9 1 5 4 -4 32 25 61 65 65 86 174 200
266 274 38 31 65 60 61 66 -4 6 -1 7 6 2 7 -4 22 1 34 12 136 117 399 233 632
279 96 18 332 10 448 -16z"/>
<path d="M3965 4146 c-114 -36 -252 -182 -344 -365 -25 -49 -16 -76 16 -50 42
33 118 96 142 118 119 108 264 142 376 86 50 -24 95 -32 95 -17 0 20 -35 110
-55 142 -58 91 -129 118 -230 86z m73 -22 c-3 -3 -20 -6 -37 -6 -17 -1 -29 -4
-27 -7 2 -3 -7 -7 -21 -7 -13 -1 -34 -10 -45 -20 -12 -11 -18 -13 -14 -6 15
26 71 52 110 52 22 0 37 -3 34 -6z"/>
<path d="M4048 3933 c18 -2 45 -2 60 0 15 2 0 4 -33 4 -33 0 -45 -2 -27 -4z"/>
<path d="M3868 3883 c7 -3 16 -2 19 1 4 3 -2 6 -13 5 -11 0 -14 -3 -6 -6z"/>
<path d="M3805 3855 c-22 -14 -36 -25 -31 -25 10 0 76 40 76 46 0 6 -2 5 -45
-21z"/>
<path d="M5216 3802 c-3 -5 25 -32 62 -60 37 -28 107 -91 156 -141 50 -49 94
-87 99 -84 6 3 7 1 3 -6 -5 -7 6 -27 26 -49 67 -75 187 -246 239 -340 22 -40
44 -70 48 -68 4 3 7 -3 8 -12 0 -9 19 -57 41 -107 50 -113 66 -161 103 -305
62 -238 88 -502 70 -705 -33 -364 -135 -657 -339 -973 -22 -35 -31 -57 -24
-64 6 -6 27 18 60 69 313 488 404 1019 277 1608 -31 143 -84 305 -138 419 -58
121 -176 308 -189 300 -7 -4 -8 -2 -4 4 19 31 -269 359 -406 463 -81 62 -84
64 -92 51z"/>
<path d="M5064 3780 c-47 -19 -115 -128 -120 -192 -2 -35 9 -53 18 -27 6 17
105 30 149 20 21 -5 56 -23 79 -41 46 -36 95 -113 84 -131 -4 -7 -3 -9 3 -6 6
4 22 -24 38 -63 38 -95 60 -96 52 -2 -9 88 -49 246 -77 303 -60 120 -145 172
-226 139z m96 -30 c8 -5 11 -10 5 -10 -5 0 -17 5 -25 10 -8 5 -10 10 -5 10 6
0 17 -5 25 -10z"/>
<path d="M5186 3507 c3 -10 9 -15 12 -12 3 3 0 11 -7 18 -10 9 -11 8 -5 -6z"/>
<path d="M5210 3483 c0 -6 8 -17 18 -24 16 -13 16 -13 2 6 -8 11 -16 22 -17
24 -2 2 -3 0 -3 -6z"/>
<path d="M3839 3377 c-142 -40 -284 -210 -334 -397 -27 -99 -15 -291 19 -312
8 -6 8 -8 -1 -8 -7 0 -16 6 -20 14 -13 22 -83 53 -192 85 -114 34 -231 51
-231 33 0 -6 17 -14 38 -17 238 -36 464 -140 596 -274 27 -28 53 -48 58 -45 5
3 4 12 -3 20 -14 18 -11 18 42 -2 81 -29 173 4 234 82 92 122 87 328 -12 429
-46 47 -88 65 -157 65 -44 0 -62 -6 -102 -32 -128 -86 -168 -283 -88 -433 30
-58 30 -64 -1 -27 -14 17 -47 44 -74 61 -69 45 -86 87 -86 221 0 103 1 106 42
190 94 190 213 284 363 284 125 0 218 -57 299 -183 126 -195 99 -572 -55 -781
-54 -74 -114 -110 -193 -117 -55 -5 -59 -4 -64 18 -8 29 -82 156 -110 187 -38
42 -40 6 -2 -44 69 -90 124 -221 146 -351 8 -44 16 -63 26 -63 16 0 15 8 -14
130 -8 36 -21 72 -28 80 -12 13 -6 15 48 16 73 0 124 24 179 81 110 114 178
313 178 521 0 239 -115 469 -275 547 -63 31 -161 40 -226 22z m137 -418 c16
-7 34 -13 39 -13 19 -2 57 -96 62 -154 7 -72 -16 -158 -53 -202 -15 -17 -29
-29 -31 -26 -3 2 -24 -2 -48 -11 -33 -11 -49 -12 -64 -3 -16 8 -21 8 -21 -2 0
-8 -3 -9 -8 -3 -4 6 -16 12 -27 13 -11 2 -30 13 -43 25 -13 12 -25 21 -28 20
-2 -2 -15 9 -28 22 -14 14 -22 25 -18 25 4 0 1 4 -5 8 -7 5 -16 29 -19 54 -7
53 3 141 16 133 4 -3 6 5 2 17 -3 14 -2 19 6 14 7 -4 12 -1 12 9 0 9 5 13 10
10 6 -3 10 -1 10 5 0 25 49 60 85 60 20 0 34 4 31 8 -7 12 85 5 120 -9z m-226
-463 c0 -6 -5 -3 -11 7 -6 9 -15 14 -21 11 -7 -4 -8 -2 -4 5 9 14 36 -3 36
-23z"/>
<path d="M3888 2891 c9 -63 -43 -112 -103 -97 -25 6 -25 5 -25 -54 0 -73 27
-133 69 -155 30 -15 30 -15 29 15 -2 61 54 82 90 33 l21 -28 20 45 c43 93 17
221 -51 256 -42 22 -55 18 -50 -15z"/>
<path d="M4836 3086 c-114 -48 -182 -146 -214 -307 -14 -73 -14 -88 1 -180 29
-175 104 -323 225 -446 34 -34 87 -77 118 -94 46 -27 54 -34 42 -43 -41 -30
-138 -119 -138 -127 0 -11 27 -12 32 -1 2 4 24 25 49 47 148 130 279 206 399
231 81 17 150 7 218 -31 52 -29 52 -29 52 -11 0 26 -109 71 -170 71 l-55 0 29
85 c122 355 -130 809 -458 827 -59 3 -81 -1 -130 -21z m276 -89 c128 -63 232
-192 288 -357 41 -120 28 -296 -30 -411 -14 -27 -27 -38 -51 -43 -17 -3 -58
-18 -91 -33 -43 -19 -55 -29 -46 -36 9 -6 7 -7 -6 -3 -13 5 -37 -5 -73 -29
l-54 -36 -50 28 c-124 67 -247 217 -305 373 -122 325 0 596 267 587 64 -2 86
-8 151 -40z"/>
<path d="M4811 2812 c-173 -88 -145 -430 42 -521 135 -65 254 23 265 196 7
111 -19 190 -86 265 -65 73 -152 96 -221 60z m118 -76 c81 -19 153 -118 147
-202 -5 -69 -18 -96 -69 -147 -48 -47 -113 -72 -151 -57 -30 11 -70 57 -96
110 -25 49 -44 217 -29 256 14 39 46 53 112 49 34 -2 73 -6 86 -9z"/>
<path d="M4877 2671 c5 -45 3 -55 -17 -76 -16 -17 -34 -25 -56 -25 -32 0 -33
-1 -27 -32 13 -69 67 -134 120 -144 41 -8 48 -2 33 26 -9 17 -8 26 5 47 14 20
23 24 51 21 l34 -4 0 51 c0 86 -53 164 -122 181 l-27 6 6 -51z"/>
<path d="M3055 2381 c-64 -16 -137 -62 -124 -76 3 -2 29 8 59 23 64 31 165 41
244 23 l51 -12 45 -96 c24 -53 66 -126 92 -162 27 -36 48 -72 48 -81 0 -35 81
-354 120 -475 142 -435 280 -647 494 -755 89 -45 89 -45 195 -45 98 0 111 3
166 30 121 61 217 188 279 371 50 150 86 233 124 293 50 77 111 141 136 141
38 0 149 40 216 77 36 20 92 63 124 95 33 32 64 58 69 58 5 0 47 -18 94 -41
55 -26 89 -37 96 -30 6 6 -17 22 -64 44 -140 67 -227 87 -294 68 -45 -13 -93
-46 -82 -57 4 -4 16 1 27 11 23 20 119 32 166 21 l27 -7 -34 -36 c-78 -81
-201 -146 -339 -178 -101 -23 -401 -24 -550 -1 -240 37 -455 113 -655 231 -60
35 -113 61 -117 59 -5 -3 -7 -1 -6 4 4 15 -103 93 -116 85 -6 -3 -8 -3 -4 2 5
5 -14 31 -40 59 -74 79 -187 274 -169 292 8 8 84 -33 164 -89 68 -47 103 -58
73 -22 -27 32 -193 126 -268 151 -80 28 -193 39 -247 25z m842 -656 c228 -113
527 -185 768 -185 41 0 65 -4 65 -11 0 -29 -67 -143 -103 -175 -84 -76 -211
-101 -358 -71 -203 42 -471 226 -567 389 -29 48 -82 184 -82 208 0 4 37 -16
83 -46 45 -30 132 -79 194 -109z m-310 -127 c-3 -8 -6 -5 -6 6 -1 11 2 17 5
13 3 -3 4 -12 1 -19z m1298 -48 c-3 -5 -12 -10 -18 -10 -7 0 -6 4 3 10 19 12
23 12 15 0z m-1246 -95 c0 -5 -6 1 -14 15 -8 14 -14 30 -14 35 0 6 6 -1 14
-15 8 -14 14 -29 14 -35z m199 -219 c57 -30 123 -121 115 -158 -6 -26 -15 -22
-43 20 -14 20 -40 52 -57 71 -18 19 -33 39 -33 44 0 5 -8 16 -17 23 -24 18 0
18 35 0z m339 -218 c23 -24 45 -55 48 -70 10 -38 -7 -35 -24 3 -10 23 -16 28
-22 18 -7 -11 -9 -10 -9 3 0 9 -19 32 -42 52 -41 34 -42 36 -18 36 17 0 40
-14 67 -42z"/>
</g>
</svg>
